<svg id="Layer_1" enable-background="new 0 0 512 512" height="512" viewBox="0 0 512 512" width="512" xmlns="http://www.w3.org/2000/svg"><g><g><g><g><g><g><path d="m426.414 441.414c-3.84 0-7.678-1.465-10.607-4.394-5.857-5.857-5.857-15.355 0-21.213 88.117-88.119 88.117-231.498 0-319.615-5.857-5.857-5.857-15.355 0-21.213s15.355-5.857 21.213 0c48.351 48.352 74.98 112.639 74.98 181.02s-26.629 132.669-74.98 181.021c-2.928 2.929-6.768 4.394-10.606 4.394z" fill="#1de8f1"/></g></g><g><g><path d="m380.969 395.969c-3.84 0-7.678-1.464-10.607-4.394-5.857-5.858-5.857-15.355 0-21.213 30.548-30.547 47.372-71.162 47.372-114.362 0-43.201-16.824-83.816-47.373-114.364-5.857-5.857-5.857-15.354 0-21.213 5.857-5.857 15.355-5.857 21.213 0 36.215 36.214 56.16 84.362 56.16 135.577 0 51.214-19.945 99.362-56.16 135.575-2.928 2.929-6.767 4.394-10.605 4.394z" fill="#a8ebfa"/></g></g></g></g><path d="m313.969 19.938c-11.27-6.24-25.584-4.906-39.271 3.663l-171.259 107.218c-7.021 4.396-9.15 13.652-4.754 20.674 2.844 4.542 7.723 7.021 12.715 7.025v194.964c-4.992.005-9.869 2.483-12.715 7.024-4.396 7.021-2.268 16.277 4.754 20.674l171.258 107.219c7.998 5.006 16.207 7.543 23.898 7.543 5.475 0 10.688-1.285 15.373-3.88 11.27-6.241 17.734-19.081 17.734-35.229v-401.667c.001-16.147-6.464-28.987-17.733-35.228z" fill="#c5e1e6"/><path d="m111.4 256.004v97.479c-4.992.005-9.869 2.483-12.715 7.024-4.396 7.021-2.268 16.277 4.754 20.674l171.258 107.219c7.998 5.006 16.207 7.543 23.898 7.543 5.475 0 10.688-1.285 15.373-3.88 11.27-6.241 17.734-19.081 17.734-35.229v-200.83z" fill="#8db9c4"/><path d="m55.166 128.533c-30.42 0-55.166 24.747-55.166 55.166v144.602c0 30.419 24.746 55.166 55.166 55.166h56.234v-254.934z" fill="#ff9f00"/></g><path d="m481.895 256.004c0 57.873-22.029 115.745-66.088 159.804-5.857 5.857-5.857 15.355 0 21.213 2.93 2.929 6.768 4.394 10.607 4.394 3.838 0 7.678-1.465 10.605-4.394 48.352-48.352 74.981-112.638 74.981-181.017z" fill="#00acb3"/><path d="m370.361 370.362c-5.857 5.857-5.857 15.354 0 21.213 2.93 2.93 6.768 4.394 10.607 4.394 3.838 0 7.678-1.465 10.605-4.394 36.215-36.212 56.16-84.358 56.16-135.571h-30c.001 43.199-16.823 83.812-47.372 114.358z" fill="#76e2f8"/><path d="m0 328.301c0 30.419 24.746 55.166 55.166 55.166h56.234v-127.463h-111.4z" fill="#ff641a"/></g></svg>